<mxfile host="app.diagrams.net" modified="2022-07-12T05:21:58.965Z" agent="5.0 (Macintosh; Intel Mac OS X 10_15_7) AppleWebKit/537.36 (KHTML, like Gecko) Chrome/102.0.0.0 Safari/537.36" etag="WSUFUhYdLTO8gXBpQ9E6" version="20.0.4" type="github">
  <diagram id="RpLbGMgYIpwDXW_oFPGz" name="第 1 页">
    <mxGraphModel dx="850" dy="500" grid="1" gridSize="10" guides="1" tooltips="1" connect="1" arrows="1" fold="1" page="1" pageScale="1" pageWidth="827" pageHeight="1169" math="0" shadow="0">
      <root>
        <mxCell id="0" />
        <mxCell id="1" parent="0" />
        <mxCell id="_aRBJviNGePjIrZY0RLF-1" value="开始" style="strokeWidth=2;html=1;shape=mxgraph.flowchart.start_1;whiteSpace=wrap;" vertex="1" parent="1">
          <mxGeometry x="299" y="50" width="90" height="40" as="geometry" />
        </mxCell>
        <mxCell id="_aRBJviNGePjIrZY0RLF-2" value="用户输入查询词" style="rounded=1;whiteSpace=wrap;html=1;absoluteArcSize=1;arcSize=14;strokeWidth=2;" vertex="1" parent="1">
          <mxGeometry x="299" y="110" width="90" height="40" as="geometry" />
        </mxCell>
        <mxCell id="_aRBJviNGePjIrZY0RLF-3" value="调用ES查询分词器" style="rounded=1;whiteSpace=wrap;html=1;absoluteArcSize=1;arcSize=14;strokeWidth=2;" vertex="1" parent="1">
          <mxGeometry x="289" y="170" width="110" height="40" as="geometry" />
        </mxCell>
        <mxCell id="_aRBJviNGePjIrZY0RLF-4" value="过滤用户查询词" style="rounded=1;whiteSpace=wrap;html=1;absoluteArcSize=1;arcSize=14;strokeWidth=2;" vertex="1" parent="1">
          <mxGeometry x="289" y="230" width="110" height="40" as="geometry" />
        </mxCell>
        <mxCell id="_aRBJviNGePjIrZY0RLF-5" value="系统调用索引器接口" style="rounded=1;whiteSpace=wrap;html=1;absoluteArcSize=1;arcSize=14;strokeWidth=2;" vertex="1" parent="1">
          <mxGeometry x="289" y="290" width="110" height="40" as="geometry" />
        </mxCell>
        <mxCell id="_aRBJviNGePjIrZY0RLF-13" value="" style="edgeStyle=orthogonalEdgeStyle;rounded=0;orthogonalLoop=1;jettySize=auto;html=1;" edge="1" parent="1" source="_aRBJviNGePjIrZY0RLF-6" target="_aRBJviNGePjIrZY0RLF-12">
          <mxGeometry relative="1" as="geometry" />
        </mxCell>
        <mxCell id="_aRBJviNGePjIrZY0RLF-6" value="获取索引库文档列表" style="rounded=1;whiteSpace=wrap;html=1;absoluteArcSize=1;arcSize=14;strokeWidth=2;" vertex="1" parent="1">
          <mxGeometry x="289" y="350" width="110" height="40" as="geometry" />
        </mxCell>
        <mxCell id="_aRBJviNGePjIrZY0RLF-15" value="" style="edgeStyle=orthogonalEdgeStyle;rounded=0;orthogonalLoop=1;jettySize=auto;html=1;" edge="1" parent="1" source="_aRBJviNGePjIrZY0RLF-12" target="_aRBJviNGePjIrZY0RLF-14">
          <mxGeometry relative="1" as="geometry" />
        </mxCell>
        <mxCell id="_aRBJviNGePjIrZY0RLF-12" value="依次遍历文档" style="rounded=1;whiteSpace=wrap;html=1;absoluteArcSize=1;arcSize=14;strokeWidth=2;" vertex="1" parent="1">
          <mxGeometry x="289" y="420" width="110" height="40" as="geometry" />
        </mxCell>
        <mxCell id="_aRBJviNGePjIrZY0RLF-14" value="是否命中" style="strokeWidth=2;html=1;shape=mxgraph.flowchart.decision;whiteSpace=wrap;" vertex="1" parent="1">
          <mxGeometry x="296.5" y="490" width="95" height="50" as="geometry" />
        </mxCell>
        <mxCell id="_aRBJviNGePjIrZY0RLF-21" value="" style="edgeStyle=orthogonalEdgeStyle;rounded=0;orthogonalLoop=1;jettySize=auto;html=1;" edge="1" parent="1" source="_aRBJviNGePjIrZY0RLF-16" target="_aRBJviNGePjIrZY0RLF-17">
          <mxGeometry relative="1" as="geometry" />
        </mxCell>
        <mxCell id="_aRBJviNGePjIrZY0RLF-16" value="计算文档得分" style="rounded=1;whiteSpace=wrap;html=1;absoluteArcSize=1;arcSize=14;strokeWidth=2;" vertex="1" parent="1">
          <mxGeometry x="289" y="560" width="110" height="40" as="geometry" />
        </mxCell>
        <mxCell id="_aRBJviNGePjIrZY0RLF-41" value="" style="edgeStyle=orthogonalEdgeStyle;rounded=0;orthogonalLoop=1;jettySize=auto;html=1;" edge="1" parent="1" source="_aRBJviNGePjIrZY0RLF-17" target="_aRBJviNGePjIrZY0RLF-26">
          <mxGeometry relative="1" as="geometry" />
        </mxCell>
        <mxCell id="_aRBJviNGePjIrZY0RLF-17" value="遍历完毕" style="strokeWidth=2;html=1;shape=mxgraph.flowchart.decision;whiteSpace=wrap;" vertex="1" parent="1">
          <mxGeometry x="296.5" y="620" width="95" height="50" as="geometry" />
        </mxCell>
        <mxCell id="_aRBJviNGePjIrZY0RLF-25" value="" style="endArrow=classic;html=1;rounded=0;exitX=0.5;exitY=1;exitDx=0;exitDy=0;exitPerimeter=0;entryX=0.5;entryY=0;entryDx=0;entryDy=0;" edge="1" parent="1" source="_aRBJviNGePjIrZY0RLF-14" target="_aRBJviNGePjIrZY0RLF-16">
          <mxGeometry width="50" height="50" relative="1" as="geometry">
            <mxPoint x="399" y="540" as="sourcePoint" />
            <mxPoint x="449" y="490" as="targetPoint" />
          </mxGeometry>
        </mxCell>
        <mxCell id="_aRBJviNGePjIrZY0RLF-26" value="按照相关度排序" style="rounded=1;whiteSpace=wrap;html=1;absoluteArcSize=1;arcSize=14;strokeWidth=2;" vertex="1" parent="1">
          <mxGeometry x="450" y="625" width="110" height="40" as="geometry" />
        </mxCell>
        <mxCell id="_aRBJviNGePjIrZY0RLF-29" value="输出排序结果" style="rounded=1;whiteSpace=wrap;html=1;absoluteArcSize=1;arcSize=14;strokeWidth=2;" vertex="1" parent="1">
          <mxGeometry x="450" y="560" width="110" height="40" as="geometry" />
        </mxCell>
        <mxCell id="_aRBJviNGePjIrZY0RLF-30" value="结束" style="strokeWidth=2;html=1;shape=mxgraph.flowchart.start_1;whiteSpace=wrap;" vertex="1" parent="1">
          <mxGeometry x="460" y="495" width="90" height="40" as="geometry" />
        </mxCell>
        <mxCell id="_aRBJviNGePjIrZY0RLF-32" value="" style="endArrow=classic;html=1;rounded=0;exitX=0.5;exitY=1;exitDx=0;exitDy=0;exitPerimeter=0;entryX=0.5;entryY=0;entryDx=0;entryDy=0;" edge="1" parent="1" source="_aRBJviNGePjIrZY0RLF-1" target="_aRBJviNGePjIrZY0RLF-2">
          <mxGeometry width="50" height="50" relative="1" as="geometry">
            <mxPoint x="399" y="100" as="sourcePoint" />
            <mxPoint x="449" y="50" as="targetPoint" />
          </mxGeometry>
        </mxCell>
        <mxCell id="_aRBJviNGePjIrZY0RLF-35" value="" style="endArrow=classic;html=1;rounded=0;exitX=0.5;exitY=1;exitDx=0;exitDy=0;entryX=0.5;entryY=0;entryDx=0;entryDy=0;" edge="1" parent="1" source="_aRBJviNGePjIrZY0RLF-2" target="_aRBJviNGePjIrZY0RLF-3">
          <mxGeometry width="50" height="50" relative="1" as="geometry">
            <mxPoint x="390" y="280" as="sourcePoint" />
            <mxPoint x="440" y="230" as="targetPoint" />
          </mxGeometry>
        </mxCell>
        <mxCell id="_aRBJviNGePjIrZY0RLF-36" value="" style="endArrow=classic;html=1;rounded=0;exitX=0.5;exitY=1;exitDx=0;exitDy=0;entryX=0.5;entryY=0;entryDx=0;entryDy=0;" edge="1" parent="1" source="_aRBJviNGePjIrZY0RLF-3" target="_aRBJviNGePjIrZY0RLF-4">
          <mxGeometry width="50" height="50" relative="1" as="geometry">
            <mxPoint x="390" y="280" as="sourcePoint" />
            <mxPoint x="440" y="230" as="targetPoint" />
          </mxGeometry>
        </mxCell>
        <mxCell id="_aRBJviNGePjIrZY0RLF-37" value="" style="endArrow=classic;html=1;rounded=0;exitX=0.5;exitY=1;exitDx=0;exitDy=0;entryX=0.5;entryY=0;entryDx=0;entryDy=0;" edge="1" parent="1" source="_aRBJviNGePjIrZY0RLF-4" target="_aRBJviNGePjIrZY0RLF-5">
          <mxGeometry width="50" height="50" relative="1" as="geometry">
            <mxPoint x="390" y="290" as="sourcePoint" />
            <mxPoint x="440" y="240" as="targetPoint" />
          </mxGeometry>
        </mxCell>
        <mxCell id="_aRBJviNGePjIrZY0RLF-38" value="" style="endArrow=classic;html=1;rounded=0;exitX=0.5;exitY=1;exitDx=0;exitDy=0;entryX=0.5;entryY=0;entryDx=0;entryDy=0;" edge="1" parent="1" source="_aRBJviNGePjIrZY0RLF-5" target="_aRBJviNGePjIrZY0RLF-6">
          <mxGeometry width="50" height="50" relative="1" as="geometry">
            <mxPoint x="390" y="400" as="sourcePoint" />
            <mxPoint x="440" y="350" as="targetPoint" />
          </mxGeometry>
        </mxCell>
        <mxCell id="_aRBJviNGePjIrZY0RLF-40" value="" style="endArrow=classic;html=1;rounded=0;exitX=1;exitY=0.5;exitDx=0;exitDy=0;exitPerimeter=0;entryX=1;entryY=0.5;entryDx=0;entryDy=0;" edge="1" parent="1" source="_aRBJviNGePjIrZY0RLF-14" target="_aRBJviNGePjIrZY0RLF-12">
          <mxGeometry width="50" height="50" relative="1" as="geometry">
            <mxPoint x="390" y="470" as="sourcePoint" />
            <mxPoint x="440" y="420" as="targetPoint" />
            <Array as="points">
              <mxPoint x="420" y="515" />
              <mxPoint x="420" y="440" />
            </Array>
          </mxGeometry>
        </mxCell>
        <mxCell id="_aRBJviNGePjIrZY0RLF-42" value="" style="endArrow=classic;html=1;rounded=0;exitX=0.5;exitY=0;exitDx=0;exitDy=0;entryX=0.5;entryY=1;entryDx=0;entryDy=0;" edge="1" parent="1" source="_aRBJviNGePjIrZY0RLF-26" target="_aRBJviNGePjIrZY0RLF-29">
          <mxGeometry width="50" height="50" relative="1" as="geometry">
            <mxPoint x="390" y="470" as="sourcePoint" />
            <mxPoint x="440" y="420" as="targetPoint" />
          </mxGeometry>
        </mxCell>
        <mxCell id="_aRBJviNGePjIrZY0RLF-43" value="" style="endArrow=classic;html=1;rounded=0;exitX=0.5;exitY=0;exitDx=0;exitDy=0;entryX=0.5;entryY=1;entryDx=0;entryDy=0;entryPerimeter=0;" edge="1" parent="1" source="_aRBJviNGePjIrZY0RLF-29" target="_aRBJviNGePjIrZY0RLF-30">
          <mxGeometry width="50" height="50" relative="1" as="geometry">
            <mxPoint x="390" y="470" as="sourcePoint" />
            <mxPoint x="440" y="420" as="targetPoint" />
          </mxGeometry>
        </mxCell>
        <mxCell id="_aRBJviNGePjIrZY0RLF-44" value="" style="endArrow=classic;html=1;rounded=0;exitX=0;exitY=0.5;exitDx=0;exitDy=0;exitPerimeter=0;entryX=0;entryY=0.5;entryDx=0;entryDy=0;" edge="1" parent="1" source="_aRBJviNGePjIrZY0RLF-17" target="_aRBJviNGePjIrZY0RLF-12">
          <mxGeometry width="50" height="50" relative="1" as="geometry">
            <mxPoint x="390" y="550" as="sourcePoint" />
            <mxPoint x="440" y="500" as="targetPoint" />
            <Array as="points">
              <mxPoint x="240" y="645" />
              <mxPoint x="240" y="440" />
            </Array>
          </mxGeometry>
        </mxCell>
        <mxCell id="_aRBJviNGePjIrZY0RLF-45" value="否" style="text;html=1;align=center;verticalAlign=middle;resizable=0;points=[];autosize=1;strokeColor=none;fillColor=none;" vertex="1" parent="1">
          <mxGeometry x="410" y="455" width="40" height="30" as="geometry" />
        </mxCell>
        <mxCell id="_aRBJviNGePjIrZY0RLF-46" value="否" style="text;html=1;align=center;verticalAlign=middle;resizable=0;points=[];autosize=1;strokeColor=none;fillColor=none;" vertex="1" parent="1">
          <mxGeometry x="200" y="530" width="40" height="30" as="geometry" />
        </mxCell>
        <mxCell id="_aRBJviNGePjIrZY0RLF-47" value="是" style="text;html=1;align=center;verticalAlign=middle;resizable=0;points=[];autosize=1;strokeColor=none;fillColor=none;" vertex="1" parent="1">
          <mxGeometry x="310" y="530" width="40" height="30" as="geometry" />
        </mxCell>
        <mxCell id="_aRBJviNGePjIrZY0RLF-48" value="是" style="text;html=1;align=center;verticalAlign=middle;resizable=0;points=[];autosize=1;strokeColor=none;fillColor=none;" vertex="1" parent="1">
          <mxGeometry x="389" y="640" width="40" height="30" as="geometry" />
        </mxCell>
      </root>
    </mxGraphModel>
  </diagram>
</mxfile>
